<svg xmlns="http://www.w3.org/2000/svg" width="263" height="54" viewBox="0 0 263 54" fill="none"><path d="M262.436 0.000115355C149.038 0.000115355 190.324 54 130.678 54C71.0325 54 104.758 0.000115355 0 0.000115355C47.5193 0.00118239 71.0325 0 130.678 0C190.324 0 262.436 0.000115355 262.436 0.000115355Z" fill="black"></path><path fill-rule="evenodd" clip-rule="evenodd" d="M119.329 24.2907C120.037 23.5828 121.184 23.5828 121.892 24.2907L131.486 33.8846L141.08 24.2907C141.788 23.5828 142.935 23.5828 143.643 24.2907C144.351 24.9985 144.351 26.1462 143.643 26.8541L131.486 39.0114L119.329 26.8541C118.621 26.1462 118.621 24.9985 119.329 24.2907Z" fill="white"></path></svg>